<?xml version="1.0" encoding="UTF-8" standalone="no"?>
<svg
   version="1.1"
   id="svg2"
   xml:space="preserve"
   width="1333.3333"
   height="1066.6667"
   viewBox="0 0 1333.3333 1066.6667"
   sodipodi:docname="logo.svg"
   inkscape:version="1.1 (c68e22c387, 2021-05-23)"
   xmlns:inkscape="http://www.inkscape.org/namespaces/inkscape"
   xmlns:sodipodi="http://sodipodi.sourceforge.net/DTD/sodipodi-0.dtd"
   xmlns="http://www.w3.org/2000/svg"
   xmlns:svg="http://www.w3.org/2000/svg"
   xmlns:rdf="http://www.w3.org/1999/02/22-rdf-syntax-ns#"
   xmlns:cc="http://creativecommons.org/ns#"
   xmlns:dc="http://purl.org/dc/elements/1.1/"><metadata
     id="metadata8"><rdf:RDF><cc:Work
         rdf:about=""><dc:format>image/svg+xml</dc:format><dc:type
           rdf:resource="http://purl.org/dc/dcmitype/StillImage" /></cc:Work></rdf:RDF></metadata><defs
     id="defs6"><clipPath
       clipPathUnits="userSpaceOnUse"
       id="clipPath20"><path
         d="m 3117.98,4211.32 h -0.01 v 0 z"
         id="path18" /></clipPath><linearGradient
       x1="0"
       y1="0"
       x2="1"
       y2="0"
       gradientUnits="userSpaceOnUse"
       gradientTransform="matrix(-0.00989842,-0.00269449,-0.00269449,0.00989842,3117.97,4211.32)"
       spreadMethod="pad"
       id="linearGradient28"><stop
         style="stop-opacity:1;stop-color:#4fa6e1"
         offset="0"
         id="stop22" /><stop
         style="stop-opacity:1;stop-color:#3974be"
         offset="0.539326"
         id="stop24" /><stop
         style="stop-opacity:1;stop-color:#2c3f92"
         offset="1"
         id="stop26" /></linearGradient><clipPath
       clipPathUnits="userSpaceOnUse"
       id="clipPath38"><path
         d="m 5153.75,4485.42 c 7.68,33.34 19.26,65.76 34.32,96.48 29.74,60.65 72.92,114.2 124.38,157.8 101.39,85.92 235.41,133.95 368.34,132.12 121,-1.66 236.15,-47.78 333.83,-117.33 140.55,-100.08 239.49,-253.74 268.44,-422.23 7.82,-45.52 10.53,-92.13 7.57,-139.06 -8.98,-142.41 -68.89,-280.19 -168.1,-382.74 -228.31,-235.98 -625.48,-288.76 -908.58,-122.33 151.5,-28.38 315.91,-36.29 466.11,3.64 101.05,26.87 194.38,80.12 259.53,163.13 58.53,74.56 95.89,166.88 111.72,260 27.24,160.33 -5.67,350.16 -117.48,473.33 -108.69,119.73 -283.12,176.96 -441.37,142.22 -169.3,-37.16 -311.35,-177.85 -350.14,-346.79 7.47,32.49 3.74,68.41 11.43,101.76 z M 3884.7,4154.37 c 97.03,-41.04 205.34,-95.11 326.31,-165.59 614.19,-357.83 1241.4,-571.91 1752.84,-438.79 25.87,6.73 51.45,14.33 76.71,22.87 159.82,54 304.41,149.68 400.48,290.25 93.29,136.52 143.32,300.74 155.62,464.83 18.06,241.07 -44.96,494.49 -205.07,675.62 -185.23,209.53 -495.03,299.41 -763.64,221.56 -268.6,-77.86 -482.32,-319.49 -526.78,-595.59 8.55,53.09 -1.26,110.53 7.56,165.03 8.82,54.51 24.01,107.93 44.99,158.99 41.43,100.81 105.24,191.62 183.44,267.29 154.09,149.11 364.74,240.71 578.96,251.92 141.72,7.42 282.02,-22.89 411.41,-79.85 -320.44,274.43 -736.62,440.26 -1191.61,440.26 -921.57,0 -1684.13,-680.11 -1813.6,-1565.77 123.45,13.24 302.31,-3.02 562.38,-113.03 z"
         id="path36" /></clipPath><radialGradient
       fx="0"
       fy="0"
       cx="0"
       cy="0"
       r="1"
       gradientUnits="userSpaceOnUse"
       gradientTransform="matrix(3e-7,-5983.05,-5983.05,-3e-7,5085.5,5899.29)"
       spreadMethod="pad"
       id="radialGradient44"><stop
         style="stop-opacity:1;stop-color:#42a8e5"
         offset="0"
         id="stop40" /><stop
         style="stop-opacity:1;stop-color:#22069f"
         offset="1"
         id="stop42" /></radialGradient><clipPath
       clipPathUnits="userSpaceOnUse"
       id="clipPath54"><path
         d="m 6793.16,5007.53 -0.01,-0.15 c 71.03,-102.64 125.1,-216.38 162.13,-335.92 69.95,-225.83 79.55,-472.11 29.93,-702.13 -49.46,-229.32 -173.31,-464.13 -369.65,-600.5 -193.49,-134.41 -431.61,-213.78 -666.16,-230.63 -505.18,-36.28 -1000.05,183.21 -1419.49,444.03 -466.12,289.86 -865.66,701.15 -1411.94,629.09 0.08,-0.01 99,-5.34 192.03,-48.88 -1.29,-14.67 -2.37,-29.39 -3.33,-44.15 128.69,-23.59 254.07,-70.34 371.46,-132.09 217.29,-114.31 407.77,-270.77 607.16,-412.38 447.61,-317.92 965.58,-616.03 1532.43,-600.17 153.88,4.3 310.38,35.48 456.05,91.67 -219.92,-120.43 -462.47,-169.66 -711.31,-158.55 -158.85,7.09 -316.28,35.3 -468.49,81.05 -521.95,156.87 -920.95,521.85 -1363.95,819.29 -249.32,167.39 -534.59,304.28 -834.84,298.97 h -0.01 c 0,0 211.11,-30.9 411.96,-231.89 64.66,-953.73 858.66,-1707.36 1828.79,-1707.36 797.95,0 1476.7,509.89 1728.53,1221.57 579.7,903.48 -71.29,1619.13 -71.29,1619.13 z"
         id="path52" /></clipPath><linearGradient
       x1="0"
       y1="0"
       x2="1.3050259"
       y2="-0.18246584"
       gradientUnits="userSpaceOnUse"
       gradientTransform="matrix(-3337.14,-857.787,-857.787,3337.14,6737.29,3830.02)"
       spreadMethod="pad"
       id="linearGradient62"><stop
         style="stop-opacity:1;stop-color:#5bd465"
         offset="0"
         id="stop56" /><stop
         style="stop-opacity:1;stop-color:#057728"
         offset="1"
         id="stop60" /></linearGradient></defs><sodipodi:namedview
     pagecolor="#ffffff"
     bordercolor="#666666"
     borderopacity="1"
     objecttolerance="10"
     gridtolerance="10"
     guidetolerance="10"
     inkscape:pageopacity="0"
     inkscape:pageshadow="2"
     inkscape:window-width="1703"
     inkscape:window-height="1198"
     id="namedview4"
     inkscape:pagecheckerboard="0"
     showgrid="false"
     inkscape:zoom="0.40921872"
     inkscape:cx="373.88319"
     inkscape:cy="405.65104"
     inkscape:window-x="0"
     inkscape:window-y="0"
     inkscape:window-maximized="0"
     inkscape:current-layer="g12" /><g
     id="g10"
     inkscape:groupmode="layer"
     inkscape:label="ink_ext_XXXXXX"
     transform="matrix(1.3333333,0,0,-1.3333333,0,1066.6667)"><g
       id="g12"
       transform="scale(0.1)"><g
         id="g14"><g
           id="g16"
           clip-path="url(#clipPath20)"><path
             d="m 3117.98,4211.32 h -0.01 v 0 z"
             style="fill:url(#linearGradient28);fill-opacity:1;fill-rule:nonzero;stroke:none"
             id="path30" /></g></g><g
         id="g32"><g
           id="g34"
           clip-path="url(#clipPath38)"><path
             d="m 5153.75,4485.42 c 7.68,33.34 19.26,65.76 34.32,96.48 29.74,60.65 72.92,114.2 124.38,157.8 101.39,85.92 235.41,133.95 368.34,132.12 121,-1.66 236.15,-47.78 333.83,-117.33 140.55,-100.08 239.49,-253.74 268.44,-422.23 7.82,-45.52 10.53,-92.13 7.57,-139.06 -8.98,-142.41 -68.89,-280.19 -168.1,-382.74 -228.31,-235.98 -625.48,-288.76 -908.58,-122.33 151.5,-28.38 315.91,-36.29 466.11,3.64 101.05,26.87 194.38,80.12 259.53,163.13 58.53,74.56 95.89,166.88 111.72,260 27.24,160.33 -5.67,350.16 -117.48,473.33 -108.69,119.73 -283.12,176.96 -441.37,142.22 -169.3,-37.16 -311.35,-177.85 -350.14,-346.79 7.47,32.49 3.74,68.41 11.43,101.76 z M 3884.7,4154.37 c 97.03,-41.04 205.34,-95.11 326.31,-165.59 614.19,-357.83 1241.4,-571.91 1752.84,-438.79 25.87,6.73 51.45,14.33 76.71,22.87 159.82,54 304.41,149.68 400.48,290.25 93.29,136.52 143.32,300.74 155.62,464.83 18.06,241.07 -44.96,494.49 -205.07,675.62 -185.23,209.53 -495.03,299.41 -763.64,221.56 -268.6,-77.86 -482.32,-319.49 -526.78,-595.59 8.55,53.09 -1.26,110.53 7.56,165.03 8.82,54.51 24.01,107.93 44.99,158.99 41.43,100.81 105.24,191.62 183.44,267.29 154.09,149.11 364.74,240.71 578.96,251.92 141.72,7.42 282.02,-22.89 411.41,-79.85 -320.44,274.43 -736.62,440.26 -1191.61,440.26 -921.57,0 -1684.13,-680.11 -1813.6,-1565.77 123.45,13.24 302.31,-3.02 562.38,-113.03"
             style="fill:url(#radialGradient44);fill-opacity:1;fill-rule:nonzero;stroke:none"
             id="path46" /></g></g><g
         id="g48"><g
           id="g50"
           clip-path="url(#clipPath54)"><path
             d="m 6793.16,5007.53 -0.01,-0.15 c 71.03,-102.64 125.1,-216.38 162.13,-335.92 69.95,-225.83 79.55,-472.11 29.93,-702.13 -49.46,-229.32 -173.31,-464.13 -369.65,-600.5 -1264.735,-899.0833 -2504.1756,942.3565 -3497.59,842.49 0.08,-0.01 99,-5.34 192.03,-48.88 -1.29,-14.67 -2.37,-29.39 -3.33,-44.15 128.69,-23.59 254.07,-70.34 371.46,-132.09 217.29,-114.31 407.77,-270.77 607.16,-412.38 447.61,-317.92 965.58,-616.03 1532.43,-600.17 153.88,4.3 310.38,35.48 456.05,91.67 -219.92,-120.43 -462.47,-169.66 -711.31,-158.55 -158.85,7.09 -316.28,35.3 -468.49,81.05 -521.95,156.87 -920.95,521.85 -1363.95,819.29 -249.32,167.39 -534.59,304.28 -834.84,298.97 h -0.01 c 0,0 211.11,-30.9 411.96,-231.89 64.66,-953.73 858.66,-1707.36 1828.79,-1707.36 797.95,0 1476.7,509.89 1728.53,1221.57 579.7,903.48 -71.29,1619.13 -71.29,1619.13"
             style="fill:url(#linearGradient62);fill-opacity:1;fill-rule:nonzero;stroke:none"
             id="path64"
             sodipodi:nodetypes="cccccccccccccccsccscc" /></g></g></g></g></svg>
